{"title":"October 2018 Hindi 720p BluRay x264 ESub [MW]","magnet":"magnet:?xt=urn:btih:1d60101d4a6c896fda1eea4ffbcd6693d74dd831&dn=October+2018+Hindi+720p+BluRay+x264+ESub+%5BMW%5D&tr=udp%3A%2F%2Ftracker.leechers-paradise.org%3A6969&tr=udp%3A%2F%2Fzer0day.ch%3A1337&tr=udp%3A%2F%2Fopen.demonii.com%3A1337&tr=udp%3A%2F%2Ftracker.coppersurfer.tk%3A6969&tr=udp%3A%2F%2Fexodus.desync.com%3A6969","uploader":"MFreaky","categoryP":"video","categoryS":"hd___movies","size":"947614825","seeders":"2","leechers":"2","description":" <a href=\"https://pichub.site/image/Dnmjg\" rel=\"nofollow\" target=\"_NEW\">https://pichub.site/image/Dnmjg</a> <a href=\"\nhttps://pichub.site/image/Dng2Z\" rel=\"nofollow\" target=\"_NEW\">\nhttps://pichub.site/image/Dng2Z</a> <a href=\"\nhttps://pichub.site/image/DnGwI\" rel=\"nofollow\" target=\"_NEW\">\nhttps://pichub.site/image/DnGwI</a> <a href=\"\nhttps://pichub.site/image/DnNxX\" rel=\"nofollow\" target=\"_NEW\">\nhttps://pichub.site/image/DnNxX</a> <a href=\"\nhttps://pichub.site/image/DnUT8\" rel=\"nofollow\" target=\"_NEW\">\nhttps://pichub.site/image/DnUT8</a>\r\n\r\nIMDB <a href=\"\nhttps://www.imdb.com/title/tt7700730/\" rel=\"nofollow\" target=\"_NEW\">\nhttps://www.imdb.com/title/tt7700730/</a>\r\n\r\nVideo\r\nID                                       : 1\r\nFormat                                   : AVC\r\nFormat/Info                              : Advanced Video Codec\r\nFormat profile                           : High@L4.1\r\nFormat settings                          : CABAC / 4 Ref Frames\r\nFormat settings, CABAC                   : Yes\r\nFormat settings, RefFrames               : 4 frames\r\nCodec ID                                 : V_MPEG4/ISO/AVC\r\nDuration                                 : 1 h 55 min\r\nBit rate                                 : 1 000 kb/s\r\nWidth                                    : 1 280 pixels\r\nHeight                                   : 536 pixels\r\nDisplay aspect ratio                     : 2.40:1\r\nFrame rate mode                          : Constant\r\nFrame rate                               : 24.000 FPS\r\nColor space                              : YUV\r\nChroma subsampling                       : 4:2:0\r\nBit depth                                : 8 bits\r\nScan type                                : Progressive\r\nBits/(Pixel*Frame)                       : 0.061\r\nStream size                              : 812 MiB (90%)\r\nWriting library                          : x264 core 155 r2901 7d0ff22\r\nDefault                                  : Yes\r\nForced                                   : No\r\n\r\nAudio\r\nID                                       : 2\r\nFormat                                   : AAC\r\nFormat/Info                              : Advanced Audio Codec\r\nFormat profile                           : HE-AAC / LC\r\nFormat settings                          : Explicit\r\nCodec ID                                 : A_AAC-2\r\nDuration                                 : 1 h 55 min\r\nBit rate                                 : 96.0 kb/s\r\nChannel(s)                               : 2 channels\r\nChannel positions                        : Front: L R\r\nSampling rate                            : 48.0 kHz / 24.0 kHz\r\nFrame rate                               : 23.438 FPS (1024 SPF)\r\nCompression mode                         : Lossy\r\nStream size                              : 78.3 MiB (9%)\r\nLanguage                                 : Hindi\r\nDefault                                  : Yes\r\nForced                                   : No","last_updated":"2018-09-09T12:05:12.581Z","parsed":{"xt":"urn:btih:1d60101d4a6c896fda1eea4ffbcd6693d74dd831","dn":"October 2018 Hindi 720p BluRay x264 ESub [MW]","tr":["udp://exodus.desync.com:6969","udp://open.demonii.com:1337","udp://tracker.coppersurfer.tk:6969","udp://tracker.leechers-paradise.org:6969","udp://zer0day.ch:1337"],"infoHash":"1d60101d4a6c896fda1eea4ffbcd6693d74dd831","infoHashBuffer":{"type":"Buffer","data":[29,96,16,29,74,108,137,111,218,30,234,79,251,205,102,147,215,77,216,49]},"name":"October 2018 Hindi 720p BluRay x264 ESub [MW]","announce":["udp://exodus.desync.com:6969","udp://open.demonii.com:1337","udp://tracker.coppersurfer.tk:6969","udp://tracker.leechers-paradise.org:6969","udp://zer0day.ch:1337"],"urlList":[]}}